<svg width="67" height="84" viewBox="0 0 67 84" fill="none" xmlns="http://www.w3.org/2000/svg">
<path d="M0 20C0 8.95432 8.9543 0 20 0H46.7566C57.8023 0 66.7566 8.9543 66.7566 20V40.7448C66.7566 50.4867 58.8592 58.3841 49.1174 58.3841H41.776C38.4905 58.3841 35.5806 60.5047 34.5743 63.6323C32.3898 70.4219 22.884 70.6937 20.3151 64.04L20.0617 63.3837C18.8985 60.3709 16.0017 58.3841 12.7721 58.3841H10.755C4.81518 58.3841 0 53.5689 0 47.6291V20Z" fill="#5E2CED"/>
<g clip-path="url(#clip0)">
<path d="M22.1687 46C19.4264 46 17.1953 43.757 17.1953 41C17.1953 38.243 19.4264 36 22.1687 36C24.9111 36 27.1422 38.243 27.1422 41C27.1422 43.757 24.9111 46 22.1687 46ZM22.1687 38C20.5235 38 19.1847 39.346 19.1847 41C19.1847 42.654 20.5235 44 22.1687 44C23.814 44 25.1528 42.654 25.1528 41C25.1528 39.346 23.814 38 22.1687 38Z" fill="#1E1E29"/>
<path d="M19.1847 26.1C28.5686 27.04 36.0546 34.566 36.9906 44H34.9902C34.0692 35.67 27.4704 29.035 19.1847 28.11V26.1ZM17.1953 24V30C25.9704 30 33.1103 37.178 33.1103 46H39.0784C39.0784 33.869 29.2619 24 17.1953 24Z" fill="#1E1E29"/>
<path d="M19.1847 16.066C34.0562 17.056 45.9865 29.049 46.9703 44H44.9759C43.9991 30.152 32.9591 19.054 19.1847 18.07V16.066ZM17.1953 14V20C31.4551 20 43.0572 31.663 43.0572 46H49.0253C49.0253 28.355 34.7466 14 17.1953 14Z" fill="#1E1E29"/>
</g>
<defs>
<clipPath id="clip0">
<rect width="31.83" height="32" fill="white" transform="translate(17.1953 14)"/>
</clipPath>
</defs>
</svg>
